<svg id="Layer_1" data-name="Layer 1" xmlns="http://www.w3.org/2000/svg" viewBox="0 0 293 227.7"><polygon points="2.5 189.2 290.5 189.2 290.5 198.2 281.5 198.2 281.5 216.2 290.5 216.2 290.5 225.2 74.5 225.2 2.5 225.2 2.5 216.2 11.5 216.2 11.5 198.2 2.5 198.2 2.5 189.2" fill="#d36866"/><path d="M293,200.7v-14H229.3L159.48,73.19a11.29,11.29,0,0,0-.08-22V2.5a2.5,2.5,0,0,0-5,0V51.19a11.29,11.29,0,0,0-.08,22L84.5,186.7H0v14H9v13H0v14H293v-14h-9v-13Zm-208.8,22H5v-4H84.2Zm0-9H14v-13H84.2Zm0-18H5v-4H84.2ZM150.6,62.2a6.3,6.3,0,1,1,6.3,6.3A6.27,6.27,0,0,1,150.6,62.2Zm6.3,16.4,66.6,108.1H90.4Zm67.7,144.1H89.2v-4H224.6Zm0-9H89.2v-13H224.6Zm0-18H89.2v-4H224.6Zm5,5H279v13H229.6Zm58.4,18v4H229.6v-4H288Zm-6.5-23H229.6v-4H288v4Z" fill="#231f20"/></svg>